<svg width="74" height="39" viewBox="0 0 74 39" fill="none" xmlns="http://www.w3.org/2000/svg">
<path d="M9.5 34.5L15.4321 25.6018C15.4767 25.5349 15.5368 25.4798 15.6072 25.441L25.4416 20.0321C25.4804 20.0108 25.5218 19.9947 25.5648 19.9843L41.9419 16.0141C41.9805 16.0047 42.0201 16 42.0597 16H50.5" stroke="url(#paint0_linear_8_1276)" stroke-width="0.3"/>
<path d="M8.39305 28.5377L1.60819 30.9324C1.13738 31.0986 1.17408 31.7763 1.66008 31.8906L8.36154 33.4674C8.45205 33.4887 8.53483 33.5348 8.60058 33.6006L12.6464 37.6464C12.9614 37.9614 13.5 37.7383 13.5 37.2929V31.8199C13.5 31.6249 13.6134 31.4477 13.7905 31.3659L19.9009 28.5457C19.9662 28.5156 20.0242 28.4717 20.071 28.4171L25.1204 22.5262C25.4225 22.1738 26 22.3874 26 22.8516V27.691C26 28.0627 26.3912 28.3044 26.7236 28.1382L31.8944 25.5528C31.9639 25.5181 32.0404 25.5 32.118 25.5H37.1324C37.3511 25.5 37.5444 25.6421 37.6096 25.8509L39.7535 32.7113C39.8656 33.07 40.3186 33.1814 40.5843 32.9157L44.8536 28.6464C44.9473 28.5527 45.0745 28.5 45.2071 28.5H50.4431C50.4809 28.5 50.5186 28.4957 50.5555 28.4872L63.4625 25.5087C63.4875 25.5029 63.512 25.4952 63.5357 25.4857L72.4071 21.9372C72.8167 21.7733 72.8289 21.198 72.4266 21.017L63.5 17L52.5512 11.5256C52.5172 11.5086 52.4813 11.4955 52.4443 11.4866L40.0892 8.52141C40.0302 8.50725 39.9743 8.48249 39.9242 8.44833L29.7817 1.53296C29.4498 1.30666 29 1.54436 29 1.94607V11.28C29 11.4202 28.9412 11.5539 28.8379 11.6486L23.2635 16.7585C23.1059 16.9029 22.8739 16.9312 22.6862 16.8288L18.2394 14.4033C17.9062 14.2216 17.5 14.4627 17.5 14.8423V19.2929C17.5 19.4255 17.4473 19.5527 17.3536 19.6464L8.5802 28.4198C8.5274 28.4726 8.46346 28.5129 8.39305 28.5377Z" stroke="#69FFB4"/>
<line x1="43.1445" y1="9.04015" x2="38.1445" y2="27.0401" stroke="#69FFB4" stroke-width="0.3"/>
<line x1="36.1366" y1="6.06207" x2="26.1366" y2="28.0621" stroke="#69FFB4" stroke-width="0.3"/>
<line x1="29.1293" y1="12.0761" x2="19.1293" y2="29.0761" stroke="#69FFB4" stroke-width="0.3"/>
<line x1="23.1268" y1="17.0801" x2="11.1268" y2="36.0801" stroke="#69FFB4" stroke-width="0.3"/>
<line x1="15.1342" y1="22.0671" x2="9.13416" y2="34.0671" stroke="#69FFB4" stroke-width="0.3"/>
<line x1="19.8663" y1="28.068" x2="16.309" y2="21.068" stroke="#69FFB4" stroke-width="0.3"/>
<line x1="72.013" y1="22.1494" x2="26.013" y2="26.1494" stroke="#69FFB4" stroke-width="0.3"/>
<line x1="66.9966" y1="18.15" x2="22.9966" y2="17.15" stroke="#69FFB4" stroke-width="0.3"/>
<line x1="25.089" y1="14.8792" x2="44.089" y2="28.8792" stroke="#69FFB4" stroke-width="0.3"/>
<line x1="55.8914" y1="27.1034" x2="35.8914" y2="6.10345" stroke="#69FFB4" stroke-width="0.3"/>
<line x1="60.0532" y1="15.1402" x2="31.0532" y2="26.1402" stroke="#69FFB4" stroke-width="0.3"/>
<line x1="49.9091" y1="28.1193" x2="28.9091" y2="12.1193" stroke="#69FFB4" stroke-width="0.3"/>
<line x1="57.9648" y1="14.1458" x2="28.9649" y2="7.14582" stroke="#69FFB4" stroke-width="0.3"/>
<defs>
<linearGradient id="paint0_linear_8_1276" x1="9.5" y1="34.3903" x2="50.5" y2="16.1097" gradientUnits="userSpaceOnUse">
<stop stop-color="#FF0000"/>
<stop offset="1" stop-color="#00FF62"/>
</linearGradient>
</defs>
</svg>
