<svg width="115" height="70" viewBox="0 0 115 70" fill="none" xmlns="http://www.w3.org/2000/svg">
<rect width="115" height="70" fill="#262626"/>
<path d="M23.0204 52.2198L30.5462 40.4432C30.5896 40.3753 30.6487 40.3189 30.7186 40.2787L43.2057 33.114C43.2452 33.0913 43.2877 33.0741 43.3319 33.063L64.0825 27.8151C64.1226 27.8049 64.1637 27.7998 64.2051 27.7998H74.8979" stroke="url(#paint0_linear_11_23)" stroke-width="0.3"/>
<path d="M21.6468 44.3399L12.5345 47.695C12.0716 47.8655 12.109 48.5322 12.588 48.6498L21.6139 50.8653C21.7061 50.888 21.79 50.9364 21.8557 51.0049L27.2207 56.6018C27.5325 56.9271 28.0816 56.7064 28.0816 56.2558V48.5742C28.0816 48.3821 28.1917 48.207 28.3647 48.1237L36.2067 44.3479C36.2722 44.3163 36.33 44.2709 36.3762 44.2148L43.0116 36.1387C43.3096 35.7761 43.898 35.9868 43.898 36.4562V43.4753C43.898 43.8507 44.2963 44.0922 44.6292 43.9186L51.3811 40.3967C51.4525 40.3594 51.5318 40.34 51.6124 40.34H58.0768C58.2977 40.34 58.4924 40.4849 58.5558 40.6965L61.366 50.0781C61.476 50.4451 61.9409 50.5572 62.206 50.2806L67.7912 44.454C67.8855 44.3556 68.0158 44.3 68.1521 44.3H74.8386C74.878 44.3 74.9173 44.2953 74.9557 44.2861L91.3082 40.3493C91.334 40.3431 91.3592 40.3349 91.3837 40.3247L102.959 35.4945C103.359 35.3275 103.371 34.7648 102.979 34.5805L91.3469 29.12L77.481 21.8874C77.4462 21.8692 77.4093 21.8552 77.3712 21.8456L61.7038 17.9229C61.6433 17.9078 61.5862 17.8815 61.5354 17.8453L48.4837 8.56178C48.1527 8.32632 47.6939 8.563 47.6939 8.96923V21.6463C47.6939 21.7828 47.6381 21.9134 47.5394 22.0077L40.3712 28.8626C40.2115 29.0153 39.9704 29.0451 39.7784 28.9358L33.8901 25.5852C33.5568 25.3956 33.1429 25.6363 33.1429 26.0198V32.2191C33.1429 32.348 33.093 32.472 33.0038 32.5651L21.835 44.2167C21.7824 44.2715 21.7181 44.3136 21.6468 44.3399Z" stroke="#EAEAEA"/>
<line y1="-0.15" x2="24.5879" y2="-0.15" transform="matrix(-0.257303 0.966331 -0.960484 -0.278334 65.4082 18.5596)" stroke="#EAEAEA" stroke-width="0.3"/>
<line y1="-0.15" x2="31.6768" y2="-0.15" transform="matrix(-0.399442 0.916758 -0.90356 -0.428462 56.551 14.6006)" stroke="#EAEAEA" stroke-width="0.3"/>
<line y1="-0.15" x2="25.7615" y2="-0.15" transform="matrix(-0.491162 0.871068 -0.852313 -0.523032 47.6938 22.5205)" stroke="#EAEAEA" stroke-width="0.3"/>
<line y1="-0.15" x2="29.3181" y2="-0.15" transform="matrix(-0.517894 0.855445 -0.835039 -0.55019 40.1021 29.1191)" stroke="#EAEAEA" stroke-width="0.3"/>
<line y1="-0.15" x2="17.5654" y2="-0.15" transform="matrix(-0.432205 0.901775 -0.886631 -0.462478 29.9795 35.7197)" stroke="#EAEAEA" stroke-width="0.3"/>
<line y1="-0.15" x2="10.278" y2="-0.15" transform="matrix(-0.437936 -0.899006 0.883516 -0.468402 36.3062 43.6396)" stroke="#EAEAEA" stroke-width="0.3"/>
<line y1="-0.15" x2="58.4431" y2="-0.15" transform="matrix(-0.995911 0.0903443 -0.0830655 -0.996544 102.102 35.7197)" stroke="#EAEAEA" stroke-width="0.3"/>
<line y1="-0.15" x2="55.6885" y2="-0.15" transform="matrix(-0.999719 -0.023703 0.0217804 -0.999763 95.7755 30.4395)" stroke="#EAEAEA" stroke-width="0.3"/>
<line y1="-0.15" x2="30.3228" y2="-0.15" transform="matrix(0.79283 0.609443 -0.576917 0.816803 42.6327 26.4795)" stroke="#EAEAEA" stroke-width="0.3"/>
<line y1="-0.15" x2="37.534" y2="-0.15" transform="matrix(-0.674219 -0.738531 0.709391 -0.704815 81.8571 42.3203)" stroke="#EAEAEA" stroke-width="0.3"/>
<line y1="-0.15" x2="39.4623" y2="-0.15" transform="matrix(-0.929847 0.367946 -0.341708 -0.939806 86.9185 26.4795)" stroke="#EAEAEA" stroke-width="0.3"/>
<line y1="-0.15" x2="33.9425" y2="-0.15" transform="matrix(-0.782836 -0.622228 0.589788 -0.807558 74.2654 43.6396)" stroke="#EAEAEA" stroke-width="0.3"/>
<line y1="-0.15" x2="37.8393" y2="-0.15" transform="matrix(-0.969727 -0.24419 0.225423 -0.974261 84.3877 25.1602)" stroke="#EAEAEA" stroke-width="0.3"/>
<defs>
<linearGradient id="paint0_linear_11_23" x1="23.0204" y1="52.075" x2="75.6056" y2="29.6004" gradientUnits="userSpaceOnUse">
<stop stop-color="#FF0000"/>
<stop offset="1" stop-color="#00FF62"/>
</linearGradient>
</defs>
</svg>
